<?xml version="1.0" encoding="utf-8"?>
<!-- Generator: Adobe Illustrator 23.0.1, SVG Export Plug-In . SVG Version: 6.00 Build 0)  -->
<svg version="1.1" id="Calque_1" xmlns="http://www.w3.org/2000/svg" xmlns:xlink="http://www.w3.org/1999/xlink" x="0px" y="0px"
	 viewBox="0 0 561.26 524.41" style="enable-background:new 0 0 561.26 524.41;" xml:space="preserve">
<style type="text/css">
	.st0{fill:none;stroke:#E1E1E1;stroke-width:8;stroke-miterlimit:10;}
	.st1{fill:#CCCBCA;stroke:#CCCBCA;stroke-width:0.1;stroke-miterlimit:10;}
	.st2{fill:#343434;}
	.st3{font-family:'MyriadPro-Regular';}
	.st4{font-size:35px;}
	.st5{fill:#094695;}
	.st6{font-size:85px;}
</style>
<circle class="st0" cx="279.84" cy="169.1" r="158.5"/>
<circle class="st0" cx="163.84" cy="357.1" r="158.5"/>
<circle class="st0" cx="395.84" cy="357.1" r="158.5"/>
<polygon class="st1" points="279.84,243.54 274.47,249.27 279.84,255.07 285.26,249.3 "/>
<polygon class="st1" points="128.16,198.6 120.35,200.48 122.12,208.26 129.86,206.37 "/>
<polygon class="st1" points="431.58,198.74 429.87,206.26 437.48,208.18 439.24,200.46 "/>
<polygon class="st1" points="238.03,317.93 245.87,319.85 244.15,327.6 236.31,325.77 "/>
<polygon class="st1" points="321.6,317.97 313.78,319.85 315.46,327.6 323.35,325.79 "/>
<text transform="matrix(1 0 0 1 5.3352 317.9667)" class="st2 st3 st4">Savoir, Epanouissement, Pérseverance</text>
<text transform="matrix(1 0 0 1 71 283.8903)" class="st5 st3 st6">Educa’world</text>
<polygon class="st1" points="279.8,459.2 285.26,464.92 279.8,471.03 274.39,465.12 "/>
</svg>
